# xmcd
#
# Track frame offsets: 
#        150
#        11718
#        24972
#        38594
#        52016
#        64958
#        78526
#        90703
#        104370
#        117262
#        130457
#        143822
#        156104
#        170965
#        186178
#        198868
#        214393
#        227395
#        241720
#        254704
#        270201
#        285501
#        300428
#        316126
#        329565
#
# Disc length: 4533 seconds
#
# Revision: 0
# Processed by: cddbd v1.5.2PL0 Copyright (c) Steve Scherf et al.
# Submitted via: ExactAudioCopyFreeDBPlugin 1.0
#
DISCID=6011b319
DTITLE=Jimmie Rodgers - The Singing Brakeman - His 50 Greatest 1927-19
DTITLE=33 (2CD)
DYEAR=2006
DGENRE=Country
TTITLE0=Mississippi River Blues
TTITLE1=Blue Yodel No.7 (Anniversary Blue Yodel)
TTITLE2=Blue Yodel No.11
TTITLE3=Pistol Packin' Papa
TTITLE4=Those Gambler's Blues
TTITLE5=Blue Yodel No.8 (Mule Skinner Blues)
TTITLE6=Blue Yodel No.9 (Standing On The Corner) (with Louis Armstrong
TTITLE6=)
TTITLE7=TB Blues
TTITLE8=Travellin' Blues
TTITLE9=Jimmie The Kid (Parts of the life of Jimmie Rodgers)
TTITLE10=The Wonderful City
TTITLE11=Let Me Be Your Sidetrack
TTITLE12=When The Cactus Is In Bloom (Round Up Time In The West)
TTITLE13=Looking For A New Mama
TTITLE14=My Good Gal's Gone (with The Louisville Jug Band)
TTITLE15=Roll Along, Kentucky Moon
TTITLE16=Blue Yodel No.10 (Ground Hog Rootin' In My Back Yard)
TTITLE17=No Hard Times
TTITLE18=Peach Pickin' Time In Georgia
TTITLE19=Gambling Bar Room Blues
TTITLE20=Blue Yodel No.12 (Barefoot Blues)
TTITLE21=Blue Yodel No.13 (Women Made A Fool Out Of Me)
TTITLE22=Mississippi Delta Blues
TTITLE23=Somewhere Down Below The Mason Dixie Line
TTITLE24=Years Ago (Fifteen Years Ago Today)
EXTD=
EXTT0=
EXTT1=
EXTT2=
EXTT3=
EXTT4=
EXTT5=
EXTT6=
EXTT7=
EXTT8=
EXTT9=
EXTT10=
EXTT11=
EXTT12=
EXTT13=
EXTT14=
EXTT15=
EXTT16=
EXTT17=
EXTT18=
EXTT19=
EXTT20=
EXTT21=
EXTT22=
EXTT23=
EXTT24=
PLAYORDER=
